<svg width="292px" height="404px"
 viewBox="0.00 0.00 292.00 404.00" xmlns="http://www.w3.org/2000/svg" xmlns:xlink="http://www.w3.org/1999/xlink">
<g id="graph0" class="graph" transform="scale(1.0 1.0) rotate(0) translate(4 400)">
<title>%0</title>
<polygon fill="#ffffff" stroke="transparent" points="-4,4 -4,-400 288,-400 288,4 -4,4"/>
<!-- 0 -->
<g id="node1" class="node">
<title>0</title>
<ellipse fill="none" stroke="#ff0000" cx="27" cy="-378" rx="27" ry="18"/>
<text text-anchor="middle" x="27" y="-373.8" font-family="Times,serif" font-size="14.00" fill="#000000">0</text>
</g>
<!-- 1 -->
<g id="node2" class="node">
<title>1</title>
<ellipse fill="none" stroke="#00ff00" cx="27" cy="-306" rx="27" ry="18"/>
<text text-anchor="middle" x="27" y="-301.8" font-family="Times,serif" font-size="14.00" fill="#000000">1</text>
</g>
<!-- 0&#45;&#45;1 -->
<g id="edge1" class="edge">
<title>0&#45;&#45;1</title>
<path fill="none" stroke="#000000" d="M27,-359.8314C27,-349 27,-335.2876 27,-324.4133"/>
</g>
<!-- 2 -->
<g id="node3" class="node">
<title>2</title>
<ellipse fill="none" stroke="#ff0000" cx="185" cy="-378" rx="27" ry="18"/>
<text text-anchor="middle" x="185" y="-373.8" font-family="Times,serif" font-size="14.00" fill="#000000">2</text>
</g>
<!-- 3 -->
<g id="node4" class="node">
<title>3</title>
<ellipse fill="none" stroke="#00ff00" cx="158" cy="-306" rx="27" ry="18"/>
<text text-anchor="middle" x="158" y="-301.8" font-family="Times,serif" font-size="14.00" fill="#000000">3</text>
</g>
<!-- 2&#45;&#45;3 -->
<g id="edge2" class="edge">
<title>2&#45;&#45;3</title>
<path fill="none" stroke="#000000" d="M178.3258,-360.2022C174.1407,-349.0419 168.7679,-334.7143 164.5974,-323.593"/>
</g>
<!-- 4 -->
<g id="node5" class="node">
<title>4</title>
<ellipse fill="none" stroke="#0000ff" cx="213" cy="-234" rx="27" ry="18"/>
<text text-anchor="middle" x="213" y="-229.8" font-family="Times,serif" font-size="14.00" fill="#000000">4</text>
</g>
<!-- 2&#45;&#45;4 -->
<g id="edge3" class="edge">
<title>2&#45;&#45;4</title>
<path fill="none" stroke="#000000" d="M188.4896,-360.0535C193.8551,-332.4592 204.0745,-279.9026 209.4664,-252.1727"/>
</g>
<!-- 5 -->
<g id="node6" class="node">
<title>5</title>
<ellipse fill="none" stroke="#a020f0" cx="103" cy="-162" rx="27" ry="18"/>
<text text-anchor="middle" x="103" y="-157.8" font-family="Times,serif" font-size="14.00" fill="#000000">5</text>
</g>
<!-- 2&#45;&#45;5 -->
<g id="edge4" class="edge">
<title>2&#45;&#45;5</title>
<path fill="none" stroke="#000000" d="M164.3688,-366.1526C149.9492,-356.694 131.6173,-342.0541 122,-324 96.9704,-277.0134 98.4562,-211.6707 101.0115,-180.2726"/>
</g>
<!-- 7 -->
<g id="node7" class="node">
<title>7</title>
<ellipse fill="none" stroke="#ffa500" cx="158" cy="-90" rx="27" ry="18"/>
<text text-anchor="middle" x="158" y="-85.8" font-family="Times,serif" font-size="14.00" fill="#000000">7</text>
</g>
<!-- 2&#45;&#45;7 -->
<g id="edge5" class="edge">
<title>2&#45;&#45;7</title>
<path fill="none" stroke="#000000" d="M198.9923,-362.1823C222.6,-333.5085 266.1712,-270.8306 249,-216 234.5651,-169.9069 195.826,-126.6698 173.8279,-104.8301"/>
</g>
<!-- 3&#45;&#45;4 -->
<g id="edge6" class="edge">
<title>3&#45;&#45;4</title>
<path fill="none" stroke="#000000" d="M170.4804,-289.6621C179.4814,-277.8788 191.5793,-262.0416 200.569,-250.2733"/>
</g>
<!-- 3&#45;&#45;5 -->
<g id="edge7" class="edge">
<title>3&#45;&#45;5</title>
<path fill="none" stroke="#000000" d="M151.2559,-288.3428C140.6999,-260.7053 120.3891,-207.5278 109.7992,-179.8017"/>
</g>
<!-- 3&#45;&#45;7 -->
<g id="edge8" class="edge">
<title>3&#45;&#45;7</title>
<path fill="none" stroke="#000000" d="M158,-287.9555C158,-247.2967 158,-148.8988 158,-108.1451"/>
</g>
<!-- 4&#45;&#45;5 -->
<g id="edge9" class="edge">
<title>4&#45;&#45;5</title>
<path fill="none" stroke="#000000" d="M193.5874,-221.2936C173.6039,-208.2135 142.6362,-187.9437 122.5885,-174.8216"/>
</g>
<!-- 4&#45;&#45;7 -->
<g id="edge10" class="edge">
<title>4&#45;&#45;7</title>
<path fill="none" stroke="#000000" d="M206.2559,-216.3428C195.6999,-188.7053 175.3891,-135.5278 164.7992,-107.8017"/>
</g>
<!-- 5&#45;&#45;7 -->
<g id="edge11" class="edge">
<title>5&#45;&#45;7</title>
<path fill="none" stroke="#000000" d="M115.4804,-145.6621C124.4814,-133.8788 136.5793,-118.0416 145.569,-106.2733"/>
</g>
<!-- 8 -->
<g id="node8" class="node">
<title>8</title>
<ellipse fill="none" stroke="#ff0000" cx="130" cy="-18" rx="27" ry="18"/>
<text text-anchor="middle" x="130" y="-13.8" font-family="Times,serif" font-size="14.00" fill="#000000">8</text>
</g>
<!-- 5&#45;&#45;8 -->
<g id="edge12" class="edge">
<title>5&#45;&#45;8</title>
<path fill="none" stroke="#000000" d="M106.365,-144.0535C111.5389,-116.4592 121.3933,-63.9026 126.5926,-36.1727"/>
</g>
<!-- 7&#45;&#45;8 -->
<g id="edge13" class="edge">
<title>7&#45;&#45;8</title>
<path fill="none" stroke="#000000" d="M151.222,-72.5708C146.8521,-61.3339 141.1894,-46.7727 136.8126,-35.5182"/>
</g>
<!-- 6 -->
<g id="node9" class="node">
<title>6</title>
<ellipse fill="none" stroke="#ff0000" cx="257" cy="-378" rx="27" ry="18"/>
<text text-anchor="middle" x="257" y="-373.8" font-family="Times,serif" font-size="14.00" fill="#000000">6</text>
</g>
</g>
</svg>
